# xmcd
# 
# Track frame offsets:
#     150
#     21940
#     49257
#     75947
#     115857
#     137475
#     158165
#     177870
#     209070
#     239440
#     255132
# 
# Disc length: 3535
# 
# Revision: 5
# Processed by: cddbd v1.5.2PL0 Copyright (c) Steve Scherf et al.
# Submitted via: fre:ac v1.0.27
# 
DISCID=880dcd0b
DTITLE=Kelly Joe Phelps - Roll Away the Stone
DYEAR=1997
DGENRE=Folk Blues
TTITLE0=Roll Away the Stone
TTITLE1=Sail the Jordan
TTITLE2=When the Roll Is Called up Yonder
TTITLE3=Hosanna
TTITLE4=Without the Light
TTITLE5=Footprints
TTITLE6=Go There
TTITLE7=See That My Grave Is Kept Clean
TTITLE8=Cypress Grove
TTITLE9=That's Alright
TTITLE10=Doxology
EXTD=
EXTT0=
EXTT1=
EXTT2=
EXTT3=
EXTT4=
EXTT5=
EXTT6=
EXTT7=
EXTT8=
EXTT9=
EXTT10=
PLAYORDER=
